<svg width="561" height="127" viewBox="0 0 561 127" fill="none" xmlns="http://www.w3.org/2000/svg">
<path d="M42.178 94.4181C61.344 94.4181 76.8814 78.9743 76.8814 59.9238C76.8814 40.8731 61.344 25.4295 42.178 25.4295C23.0118 25.4295 7.47458 40.8731 7.47458 59.9238C7.47458 78.9743 23.0118 94.4181 42.178 94.4181Z" stroke="white" stroke-width="5"/>
<path d="M54.2454 48.3383L54.846 48.9782C59.5125 53.9509 61.846 56.4373 61.846 59.5269C61.846 62.6164 59.5125 65.1029 54.846 70.0754L54.2454 70.7154" stroke="white" stroke-width="5" stroke-linecap="round"/>
<path d="M46.524 41.5149L41.9946 59.5269L37.4656 77.5393" stroke="white" stroke-width="5" stroke-linecap="round"/>
<path d="M29.746 48.3383L29.1455 48.9782C24.4788 53.9509 22.1455 56.4373 22.1455 59.5269C22.1455 62.6164 24.4788 65.1029 29.1455 70.0754L29.746 70.7154" stroke="white" stroke-width="5" stroke-linecap="round"/>
<path d="M163.016 18.1016C163.96 18.8503 164.692 19.7943 165.213 20.9336C165.766 22.0729 166.043 23.2773 166.043 24.5469C166.043 26.0768 165.669 27.5091 164.92 28.8438C164.171 30.1784 163.211 31.3503 162.039 32.3594C160.867 33.3359 159.581 34.1172 158.182 34.7031C156.814 35.2891 155.496 35.582 154.227 35.582C153.673 35.582 153.071 35.5332 152.42 35.4355C151.769 35.3379 151.167 35.1589 150.613 34.8984C150.06 34.638 149.588 34.2799 149.197 33.8242C148.839 33.3359 148.66 32.7174 148.66 31.9688C148.66 31.3503 148.79 30.7643 149.051 30.2109C149.344 29.625 149.718 29.1204 150.174 28.6973C150.662 28.2415 151.215 27.8835 151.834 27.623C152.452 27.3301 153.087 27.1836 153.738 27.1836C154.585 27.1836 155.187 27.3789 155.545 27.7695C155.903 28.1602 156.082 28.5508 156.082 28.9414C156.082 29.5924 155.87 30.097 155.447 30.4551C155.057 30.8132 154.617 31.1224 154.129 31.3828C153.641 31.6107 153.185 31.8223 152.762 32.0176C152.371 32.2129 152.176 32.457 152.176 32.75C152.176 33.2708 152.697 33.5312 153.738 33.5312C154.454 33.5312 155.268 33.3522 156.18 32.9941C157.091 32.6035 157.954 32.0339 158.768 31.2852C159.581 30.5365 160.265 29.6087 160.818 28.502C161.372 27.3626 161.648 26.0443 161.648 24.5469C161.648 23.1797 161.193 22.0729 160.281 21.2266C159.37 20.3802 158.035 19.957 156.277 19.957C154.52 19.957 152.404 20.3965 149.93 21.2754C147.488 22.1217 144.852 23.3099 142.02 24.8398C139.188 26.3698 136.225 28.209 133.133 30.3574C130.073 32.4733 127.046 34.8171 124.051 37.3887C121.089 39.9603 118.224 42.7109 115.457 45.6406C112.69 48.5378 110.184 51.5326 107.938 54.625C105.691 57.6849 103.787 60.8099 102.225 64C100.695 67.1576 99.6367 70.2826 99.0508 73.375C98.6602 75.6211 98.4648 77.5091 98.4648 79.0391C98.4648 80.276 98.6927 81.3177 99.1484 82.1641C99.6367 83.0104 100.288 83.694 101.102 84.2148C101.948 84.7357 102.924 85.11 104.031 85.3379C105.171 85.5658 106.375 85.6797 107.645 85.6797C109.598 85.6797 111.616 85.4518 113.699 84.9961C115.815 84.5404 117.817 84.0033 119.705 83.3848C121.593 82.7337 123.27 82.0827 124.734 81.4316C126.199 80.748 127.273 80.1784 127.957 79.7227C128.055 79.9831 128.136 80.2109 128.201 80.4062C128.299 80.569 128.38 80.7318 128.445 80.8945C127.501 81.5456 126.118 82.3431 124.295 83.2871C122.472 84.2311 120.389 85.1426 118.045 86.0215C115.734 86.8678 113.243 87.6003 110.574 88.2188C107.938 88.8047 105.301 89.0977 102.664 89.0977C99.1159 89.0977 96.3652 88.1862 94.4121 86.3633C92.4915 84.5404 91.5312 81.7409 91.5312 77.9648C91.5312 74.8073 92.1335 71.5033 93.3379 68.0527C94.5423 64.5697 96.1862 61.0866 98.2695 57.6035C100.385 54.0879 102.859 50.6374 105.691 47.252C108.523 43.834 111.551 40.5951 114.773 37.5352C118.029 34.4427 121.414 31.5944 124.93 28.9902C128.478 26.3861 131.977 24.1237 135.428 22.2031C138.911 20.2826 142.28 18.7852 145.535 17.7109C148.823 16.6042 151.85 16.0508 154.617 16.0508C155.236 16.0508 155.919 16.0833 156.668 16.1484C157.449 16.181 158.214 16.2786 158.963 16.4414C159.712 16.5716 160.428 16.7832 161.111 17.0762C161.827 17.3366 162.462 17.6784 163.016 18.1016ZM169.949 75.2305C168.387 76.9883 167.068 78.6647 165.994 80.2598C164.92 81.8223 164.383 83.1732 164.383 84.3125C164.383 85.1914 164.692 85.8262 165.311 86.2168C165.962 86.5749 166.759 86.7539 167.703 86.7539C168.582 86.7539 169.607 86.6562 170.779 86.4609C171.984 86.2656 173.383 85.9238 174.979 85.4355C176.606 84.9147 178.478 84.2311 180.594 83.3848C182.742 82.5384 185.216 81.4479 188.016 80.1133L188.504 81.2852C185.574 82.6849 182.938 83.873 180.594 84.8496C178.25 85.8262 176.118 86.64 174.197 87.291C172.309 87.9095 170.584 88.3652 169.021 88.6582C167.492 88.9512 166.076 89.0977 164.773 89.0977C163.96 89.0977 163.13 89 162.283 88.8047C161.437 88.5768 160.656 88.2513 159.939 87.8281C159.256 87.3724 158.686 86.8353 158.23 86.2168C157.775 85.5983 157.547 84.8659 157.547 84.0195C157.547 83.6289 157.596 83.222 157.693 82.7988C157.791 82.3757 157.97 81.9362 158.23 81.4805C155.529 84.1172 152.941 86.054 150.467 87.291C147.993 88.4954 145.698 89.0977 143.582 89.0977C141.954 89.0977 140.636 88.8861 139.627 88.4629C138.65 88.0072 137.869 87.4375 137.283 86.7539C136.73 86.0378 136.355 85.2402 136.16 84.3613C135.965 83.4824 135.867 82.5872 135.867 81.6758C135.867 80.1458 136.225 78.5508 136.941 76.8906C137.658 75.2305 138.618 73.5866 139.822 71.959C141.059 70.3314 142.475 68.7852 144.07 67.3203C145.698 65.8229 147.407 64.5208 149.197 63.4141C150.988 62.2747 152.794 61.3796 154.617 60.7285C156.44 60.0449 158.198 59.7031 159.891 59.7031C160.965 59.7031 161.974 59.8008 162.918 59.9961C163.862 60.1914 164.676 60.5007 165.359 60.9238C166.043 61.3145 166.58 61.8516 166.971 62.5352C167.394 63.1862 167.605 63.9674 167.605 64.8789C167.605 65.9206 167.312 67.125 166.727 68.4922L165.066 69.2734C165.262 68.4922 165.359 67.7435 165.359 67.0273C165.359 66.5065 165.294 66.002 165.164 65.5137C165.066 64.9928 164.887 64.5371 164.627 64.1465C164.367 63.7559 164.008 63.4466 163.553 63.2188C163.13 62.9583 162.592 62.8281 161.941 62.8281C160.542 62.8281 159.109 63.1699 157.645 63.8535C156.18 64.5046 154.747 65.3835 153.348 66.4902C151.98 67.5645 150.678 68.7852 149.441 70.1523C148.237 71.487 147.179 72.8542 146.268 74.2539C145.356 75.6536 144.624 77.0046 144.07 78.3066C143.549 79.6087 143.289 80.7318 143.289 81.6758C143.289 83.0104 143.598 83.8893 144.217 84.3125C144.835 84.7031 145.828 84.8984 147.195 84.8984C148.823 84.8984 150.516 84.3939 152.273 83.3848C154.031 82.3757 155.887 80.9922 157.84 79.2344C158.719 78.388 159.565 77.5742 160.379 76.793C161.225 76.0117 162.137 75.0352 163.113 73.8633C163.699 73.1471 164.399 72.3008 165.213 71.3242C166.059 70.3477 166.938 69.3385 167.85 68.2969C168.794 67.2227 169.738 66.181 170.682 65.1719C171.658 64.1628 172.57 63.2513 173.416 62.4375C174.295 61.6237 175.076 60.9727 175.76 60.4844C176.443 59.9635 176.98 59.7031 177.371 59.7031C177.632 59.7031 177.99 59.752 178.445 59.8496C178.901 59.9473 179.34 60.0938 179.764 60.2891C180.219 60.4518 180.594 60.6797 180.887 60.9727C181.212 61.2331 181.375 61.526 181.375 61.8516C181.375 62.2096 181.131 62.6654 180.643 63.2188C180.187 63.7721 179.617 64.4232 178.934 65.1719L169.949 75.2305ZM199.93 53.1602C200.613 53.1602 201.264 53.3066 201.883 53.5996C202.534 53.8926 203.055 54.332 203.445 54.918C203.934 55.5039 204.243 56.2689 204.373 57.2129C204.536 58.1243 204.617 59.1172 204.617 60.1914L204.52 62.6328C204.975 62.7956 205.545 62.9421 206.229 63.0723C206.945 63.1699 207.677 63.2188 208.426 63.2188C209.858 63.2188 211.535 62.9746 213.455 62.4863C215.376 61.998 217.638 61.0378 220.242 59.6055C220.307 59.6706 220.372 59.7682 220.438 59.8984C220.503 60.0286 220.584 60.1751 220.682 60.3379C220.779 60.5007 220.893 60.6797 221.023 60.875C220.438 61.168 219.949 61.4609 219.559 61.7539C219.168 62.0469 218.777 62.3724 218.387 62.7305C217.964 63.0885 217.41 63.6257 216.727 64.3418C216.076 65.0254 215.392 65.7578 214.676 66.5391C213.96 67.3203 213.26 68.1178 212.576 68.9316C211.925 69.7129 211.388 70.3802 210.965 70.9336C209.923 72.2682 208.914 73.6191 207.938 74.9863C206.993 76.3535 206.147 77.6393 205.398 78.8438C204.682 80.0482 204.113 81.1387 203.689 82.1152C203.266 83.0592 203.055 83.7917 203.055 84.3125C203.055 85.1589 203.315 85.696 203.836 85.9238C204.389 86.1517 205.138 86.2656 206.082 86.2656C206.961 86.2656 208.035 86.2005 209.305 86.0703C210.607 85.9076 212.104 85.5983 213.797 85.1426C215.522 84.6868 217.459 84.0521 219.607 83.2383C221.788 82.3919 224.214 81.2852 226.883 79.918L227.371 81.0898C224.865 82.5872 222.374 83.8405 219.9 84.8496C217.459 85.8587 215.099 86.6725 212.82 87.291C210.574 87.9095 208.458 88.349 206.473 88.6094C204.487 88.8698 202.729 89 201.199 89C199.441 89 198.156 88.5768 197.342 87.7305C196.528 86.8516 196.121 85.6797 196.121 84.2148C196.121 83.6289 196.284 82.9616 196.609 82.2129C196.935 81.4642 197.439 80.5853 198.123 79.5762C198.807 78.5345 199.686 77.3464 200.76 76.0117C201.867 74.6771 203.185 73.1146 204.715 71.3242C204.812 71.2266 205.024 70.9987 205.35 70.6406C205.675 70.25 206.049 69.8268 206.473 69.3711C206.928 68.8828 207.4 68.3783 207.889 67.8574C208.41 67.304 208.882 66.7995 209.305 66.3438C209.728 65.888 210.086 65.4974 210.379 65.1719C210.704 64.8464 210.9 64.651 210.965 64.5859C210.509 64.6836 210.005 64.7812 209.451 64.8789C208.898 64.944 208.328 64.9766 207.742 64.9766C207.189 64.9766 206.587 64.9766 205.936 64.9766C205.285 64.944 204.682 64.8789 204.129 64.7812C203.934 65.7578 203.657 66.7018 203.299 67.6133C202.973 68.5247 202.518 69.4199 201.932 70.2988C201.346 71.1777 200.597 72.0404 199.686 72.8867C198.807 73.7331 197.716 74.5794 196.414 75.4258L195.145 74.6445C196.479 73.8958 197.57 73.0658 198.416 72.1543C199.262 71.2428 199.93 70.3314 200.418 69.4199C200.906 68.4759 201.232 67.5482 201.395 66.6367C201.59 65.6927 201.72 64.8138 201.785 64C200.939 63.7396 200.125 63.3978 199.344 62.9746C198.595 62.5514 197.928 62.0632 197.342 61.5098C196.788 60.9564 196.349 60.3216 196.023 59.6055C195.698 58.8893 195.535 58.1081 195.535 57.2617C195.535 56.0898 195.942 55.1133 196.756 54.332C197.602 53.5508 198.66 53.1602 199.93 53.1602ZM268.875 44.3711C266.922 46.4219 265.164 48.2611 263.602 49.8887C262.039 51.5163 260.493 53.0951 258.963 54.625C257.433 56.1224 255.838 57.6686 254.178 59.2637C252.518 60.8262 250.613 62.584 248.465 64.5371C246.316 66.4577 243.826 68.6549 240.994 71.1289C238.195 73.6029 234.891 76.5 231.082 79.8203C230.724 80.6992 230.447 81.513 230.252 82.2617C230.089 82.9779 230.008 83.6289 230.008 84.2148C230.008 84.6706 230.138 85.0612 230.398 85.3867C230.659 85.6797 230.984 85.9238 231.375 86.1191C231.798 86.3145 232.254 86.4609 232.742 86.5586C233.263 86.6237 233.751 86.6562 234.207 86.6562C235.086 86.6562 236.111 86.5586 237.283 86.3633C238.488 86.168 239.887 85.8262 241.482 85.3379C243.11 84.8171 244.982 84.1335 247.098 83.2871C249.246 82.4408 251.72 81.3503 254.52 80.0156L255.008 81.1875C252.078 82.5872 249.441 83.7754 247.098 84.752C244.754 85.7285 242.622 86.5423 240.701 87.1934C238.813 87.8118 237.088 88.2676 235.525 88.5605C233.995 88.8535 232.579 89 231.277 89C229.943 89 228.836 88.8698 227.957 88.6094C227.111 88.349 226.427 88.0072 225.906 87.584C225.418 87.1283 225.076 86.5911 224.881 85.9727C224.653 85.3542 224.539 84.6706 224.539 83.9219C224.539 82.3919 225.011 80.5202 225.955 78.3066C226.932 76.0931 228.217 73.6842 229.812 71.0801C231.44 68.4759 233.312 65.7415 235.428 62.877C237.544 59.9798 239.757 57.099 242.068 54.2344C244.412 51.3698 246.772 48.5703 249.148 45.8359C251.557 43.1016 253.836 40.5625 255.984 38.2188C256.635 37.5026 257.498 36.6237 258.572 35.582C259.646 34.5404 260.835 33.4499 262.137 32.3105C263.439 31.1387 264.806 29.9831 266.238 28.8438C267.703 27.7044 269.135 26.679 270.535 25.7676C271.967 24.8561 273.318 24.1237 274.588 23.5703C275.89 22.9844 277.046 22.6914 278.055 22.6914C279.389 22.6914 280.317 23.0169 280.838 23.668C281.391 24.319 281.668 25.1654 281.668 26.207C281.668 27.0208 281.408 27.9648 280.887 29.0391C280.366 30.1133 279.699 31.2526 278.885 32.457C278.071 33.6615 277.16 34.8822 276.15 36.1191C275.174 37.3561 274.214 38.5117 273.27 39.5859C272.326 40.6602 271.447 41.6204 270.633 42.4668C269.852 43.3132 269.266 43.9479 268.875 44.3711ZM264.285 38.0234C262.56 39.7487 260.737 41.6204 258.816 43.6387C256.896 45.6569 254.959 47.7565 253.006 49.9375C251.085 52.0859 249.165 54.2832 247.244 56.5293C245.356 58.7754 243.549 61.0052 241.824 63.2188C240.132 65.3997 238.553 67.5319 237.088 69.6152C235.623 71.666 234.37 73.6029 233.328 75.4258C235.118 73.8958 237.12 72.1543 239.334 70.2012C241.548 68.2155 243.859 66.1322 246.268 63.9512C248.709 61.7376 251.167 59.459 253.641 57.1152C256.147 54.7715 258.556 52.444 260.867 50.1328C263.211 47.7891 265.408 45.5267 267.459 43.3457C269.51 41.1322 271.3 39.0814 272.83 37.1934C274.36 35.3053 275.564 33.6126 276.443 32.1152C277.322 30.6178 277.762 29.3971 277.762 28.4531C277.762 27.9974 277.534 27.7695 277.078 27.7695C276.427 27.7695 275.613 28.0951 274.637 28.7461C273.66 29.3646 272.586 30.1784 271.414 31.1875C270.275 32.1641 269.087 33.2708 267.85 34.5078C266.613 35.7122 265.424 36.8841 264.285 38.0234ZM288.504 79.0391C286.941 79.0391 285.542 78.7786 284.305 78.2578C283.1 77.7044 282.059 76.9557 281.18 76.0117C279.422 78.7786 277.68 81.0247 275.955 82.75C274.23 84.4753 272.553 85.8262 270.926 86.8027C269.331 87.7793 267.785 88.4466 266.287 88.8047C264.822 89.1302 263.439 89.293 262.137 89.293C260.574 89.293 259.207 89.1139 258.035 88.7559C256.863 88.3652 255.887 87.8607 255.105 87.2422C254.324 86.5911 253.738 85.8424 253.348 84.9961C252.957 84.1172 252.762 83.1732 252.762 82.1641C252.762 80.1133 253.169 78.1276 253.982 76.207C254.796 74.2539 255.887 72.4473 257.254 70.7871C258.621 69.0944 260.184 67.5645 261.941 66.1973C263.732 64.7975 265.571 63.6094 267.459 62.6328C269.347 61.6237 271.235 60.8587 273.123 60.3379C275.011 59.7845 276.753 59.5078 278.348 59.5078C279.194 59.5078 280.04 59.5729 280.887 59.7031C281.733 59.8333 282.498 60.0938 283.182 60.4844C283.865 60.875 284.419 61.4121 284.842 62.0957C285.265 62.7793 285.477 63.6745 285.477 64.7812C285.477 65.5299 285.395 66.3112 285.232 67.125C285.102 67.9062 284.939 68.6712 284.744 69.4199C284.549 70.1686 284.321 70.8848 284.061 71.5684C283.833 72.252 283.621 72.8542 283.426 73.375C283.686 74.6445 284.386 75.6211 285.525 76.3047C286.697 76.9557 287.951 77.2812 289.285 77.2812C290.359 77.2812 291.434 77.0697 292.508 76.6465C293.615 76.2233 294.591 75.6211 295.438 74.8398L296.414 75.6211C295.568 76.6628 294.428 77.4928 292.996 78.1113C291.564 78.7298 290.066 79.0391 288.504 79.0391ZM264.188 86.3633C265.262 86.3633 266.482 86.1354 267.85 85.6797C269.217 85.224 270.6 84.5078 272 83.5312C273.432 82.5547 274.832 81.3014 276.199 79.7715C277.566 78.2415 278.803 76.4023 279.91 74.2539C278.803 72.431 278.25 70.5104 278.25 68.4922C278.25 67.4505 278.478 66.5065 278.934 65.6602C279.422 64.7812 280.138 63.9023 281.082 63.0234C280.887 62.9258 280.626 62.8607 280.301 62.8281C280.008 62.763 279.585 62.7305 279.031 62.7305C277.892 62.7305 276.508 63.1211 274.881 63.9023C273.286 64.6836 271.642 65.7415 269.949 67.0762C268.289 68.3783 266.71 69.9082 265.213 71.666C263.715 73.4238 262.527 75.263 261.648 77.1836C261.258 77.9648 260.883 78.8763 260.525 79.918C260.167 80.9271 259.988 81.9036 259.988 82.8477C259.988 83.8242 260.281 84.6543 260.867 85.3379C261.453 86.0215 262.56 86.3633 264.188 86.3633ZM301.297 74.1562C301.785 74.1562 302.241 74.2214 302.664 74.3516C303.087 74.4818 303.445 74.6445 303.738 74.8398C305.105 73.8958 306.635 72.8379 308.328 71.666C310.021 70.4616 311.762 69.2409 313.553 68.0039C315.343 66.7344 317.117 65.4811 318.875 64.2441C320.633 62.9746 322.277 61.8027 323.807 60.7285C325.337 59.6217 326.704 58.6452 327.908 57.7988C329.113 56.9199 330.04 56.2526 330.691 55.7969L331.57 57.2617C330.822 58.0104 330.187 58.7428 329.666 59.459C329.178 60.1426 328.787 60.8262 328.494 61.5098C328.201 62.1608 327.99 62.8118 327.859 63.4629C327.729 64.1139 327.664 64.7812 327.664 65.4648C327.664 68.5898 327.306 71.3568 326.59 73.7656C325.906 76.1419 324.962 78.209 323.758 79.9668C322.586 81.6921 321.219 83.1406 319.656 84.3125C318.094 85.4518 316.434 86.3796 314.676 87.0957C312.951 87.7793 311.176 88.2676 309.354 88.5605C307.531 88.8535 305.789 89 304.129 89C303.055 89 301.867 88.8698 300.564 88.6094C299.295 88.3164 298.107 87.8932 297 87.3398C295.893 86.7539 294.965 86.0215 294.217 85.1426C293.468 84.2637 293.094 83.2057 293.094 81.9688C293.094 80.9596 293.322 79.9993 293.777 79.0879C294.233 78.1439 294.835 77.3138 295.584 76.5977C296.365 75.849 297.244 75.263 298.221 74.8398C299.23 74.3841 300.255 74.1562 301.297 74.1562ZM321.121 64.8789C319.721 65.8229 318.403 66.7018 317.166 67.5156C315.962 68.3294 314.725 69.1758 313.455 70.0547C312.186 70.9336 310.851 71.8613 309.451 72.8379C308.051 73.8145 306.505 74.9049 304.812 76.1094C305.008 76.4023 305.105 76.6953 305.105 76.9883C305.105 77.6719 304.943 78.2741 304.617 78.7949C304.324 79.2832 303.934 79.7064 303.445 80.0645C302.99 80.39 302.485 80.6829 301.932 80.9434C301.378 81.2038 300.857 81.4479 300.369 81.6758C299.913 81.9036 299.523 82.1478 299.197 82.4082C298.904 82.6361 298.758 82.9128 298.758 83.2383C298.758 83.6615 298.872 84.0358 299.1 84.3613C299.327 84.6543 299.62 84.8984 299.979 85.0938C300.337 85.2891 300.727 85.4355 301.15 85.5332C301.574 85.6309 301.98 85.6797 302.371 85.6797C303.152 85.6797 303.95 85.582 304.764 85.3867C305.61 85.1914 306.408 84.9635 307.156 84.7031C308.849 84.1823 310.477 83.401 312.039 82.3594C313.634 81.2852 315.066 79.9342 316.336 78.3066C317.605 76.679 318.663 74.7585 319.51 72.5449C320.356 70.3314 320.893 67.776 321.121 64.8789Z" fill="white"/>
<path d="M389.074 54.332H377.941L381.066 49.9375L392.98 50.5234L398.449 45.1523C405.188 38.5117 412.235 32.7174 419.592 27.7695C426.981 22.8216 434.68 18.7201 442.688 15.4648C442.85 15.3997 443.094 15.3346 443.42 15.2695C443.745 15.2044 444.087 15.1719 444.445 15.1719C444.738 15.1719 444.982 15.2207 445.178 15.3184C445.406 15.3835 445.52 15.5625 445.52 15.8555C445.52 16.3763 445.422 16.8158 445.227 17.1738C445.064 17.5319 444.852 17.8411 444.592 18.1016C444.331 18.3294 444.055 18.5247 443.762 18.6875C443.501 18.8503 443.273 18.9805 443.078 19.0781C441.841 19.6641 440.393 20.6081 438.732 21.9102C437.105 23.2122 435.363 24.7422 433.508 26.5C431.652 28.2253 429.732 30.1296 427.746 32.2129C425.76 34.2637 423.775 36.3958 421.789 38.6094C419.836 40.7904 417.932 42.9714 416.076 45.1523C414.221 47.3333 412.512 49.3841 410.949 51.3047L418.664 51.5977L417.004 54.332H408.41C406.783 56.2526 405.074 58.1895 403.283 60.1426C401.525 62.0632 399.784 63.9674 398.059 65.8555C396.333 67.7435 394.689 69.5827 393.127 71.373C391.564 73.1309 390.181 74.7747 388.977 76.3047C387.772 77.8346 386.812 79.2181 386.096 80.4551C385.412 81.6921 385.07 82.7174 385.07 83.5312C385.07 84.8659 385.298 85.7448 385.754 86.168C386.21 86.5586 387.056 86.7539 388.293 86.7539C389.66 86.7539 391.223 86.5423 392.98 86.1191C394.738 85.6634 396.529 85.11 398.352 84.459C400.207 83.8079 402.014 83.0918 403.771 82.3105C405.562 81.5293 407.173 80.7969 408.605 80.1133L409.094 81.2852C404.146 83.694 399.67 85.5983 395.666 86.998C391.662 88.3978 388.26 89.0977 385.461 89.0977C384.68 89.0977 383.866 89.0326 383.02 88.9023C382.173 88.7721 381.392 88.4954 380.676 88.0723C379.96 87.6491 379.374 87.0469 378.918 86.2656C378.462 85.4844 378.234 84.4427 378.234 83.1406C378.234 82.0013 378.82 80.4876 379.992 78.5996C381.164 76.7116 382.743 74.5306 384.729 72.0566C386.747 69.5827 389.074 66.8646 391.711 63.9023C394.348 60.9076 397.147 57.7174 400.109 54.332H392.395C389.693 57.1315 386.91 59.931 384.045 62.7305C381.18 65.5299 378.234 68.248 375.207 70.8848C372.18 73.4889 369.055 75.9466 365.832 78.2578C362.642 80.5365 359.322 82.5547 355.871 84.3125C354.048 85.224 352.355 85.9889 350.793 86.6074C349.23 87.1934 347.733 87.6816 346.301 88.0723C344.901 88.4303 343.534 88.6908 342.199 88.8535C340.897 89.0163 339.595 89.0977 338.293 89.0977C336.633 89.0977 335.217 88.8698 334.045 88.4141C332.906 87.9258 331.978 87.3236 331.262 86.6074C330.546 85.8587 330.025 85.0449 329.699 84.166C329.374 83.2871 329.211 82.4245 329.211 81.5781C329.211 80.569 329.39 79.6413 329.748 78.7949C330.106 77.916 330.578 77.1673 331.164 76.5488C331.75 75.8978 332.417 75.4095 333.166 75.084C333.947 74.7259 334.745 74.5469 335.559 74.5469C336.014 74.5469 336.47 74.612 336.926 74.7422C337.382 74.8398 337.772 75.0352 338.098 75.3281C338.456 75.5885 338.732 75.9629 338.928 76.4512C339.156 76.9395 339.27 77.5417 339.27 78.2578C339.27 79.2995 339.009 80.1458 338.488 80.7969C338 81.4479 337.463 82.0013 336.877 82.457C336.291 82.9128 335.738 83.3359 335.217 83.7266C334.729 84.0846 334.484 84.5078 334.484 84.9961C334.484 85.3542 334.631 85.6634 334.924 85.9238C335.217 86.1517 335.575 86.347 335.998 86.5098C336.421 86.64 336.877 86.7376 337.365 86.8027C337.854 86.8353 338.293 86.8516 338.684 86.8516C340.246 86.8516 341.678 86.7702 342.98 86.6074C344.315 86.4121 345.601 86.1354 346.838 85.7773C348.107 85.4193 349.377 84.9798 350.646 84.459C351.949 83.9056 353.365 83.2708 354.895 82.5547C355.806 82.1315 356.896 81.5293 358.166 80.748C359.468 79.9668 360.835 79.0716 362.268 78.0625C363.732 77.0534 365.214 75.9792 366.711 74.8398C368.208 73.7005 369.657 72.5612 371.057 71.4219C372.456 70.2826 373.742 69.1921 374.914 68.1504C376.118 67.0762 377.128 66.1159 377.941 65.2695L389.074 54.332ZM396.008 50.6211L403.137 50.9141C404.569 49.2865 405.887 47.7891 407.092 46.4219C408.329 45.0547 409.517 43.7526 410.656 42.5156C411.796 41.2461 412.919 40.0091 414.025 38.8047C415.165 37.5677 416.369 36.2819 417.639 34.9473C418.941 33.5801 420.34 32.1478 421.838 30.6504C423.335 29.1204 425.012 27.4115 426.867 25.5234C424.882 26.6628 422.684 28.0788 420.275 29.7715C417.867 31.4316 415.441 33.222 413 35.1426C410.559 37.0632 408.199 39.0163 405.92 41.002C403.674 42.9876 401.704 44.8268 400.012 46.5195L396.008 50.6211ZM451.086 78.6484C449.133 78.6484 447.424 78.2578 445.959 77.4766C444.527 76.6953 443.339 75.6862 442.395 74.4492C441.613 75.2956 440.799 76.1094 439.953 76.8906C439.139 77.6393 438.342 78.3555 437.561 79.0391C436.779 79.7227 436.031 80.3411 435.314 80.8945C434.598 81.4479 433.964 81.9362 433.41 82.3594C432.954 82.7174 432.157 83.2708 431.018 84.0195C429.911 84.7357 428.609 85.4681 427.111 86.2168C425.646 86.9329 424.068 87.584 422.375 88.1699C420.715 88.7233 419.087 89 417.492 89C415.376 89 413.895 88.6745 413.049 88.0234C412.235 87.3398 411.828 86.4609 411.828 85.3867C411.828 84.5729 412.056 83.694 412.512 82.75C412.967 81.7734 413.553 80.7969 414.27 79.8203C414.986 78.8112 415.767 77.8021 416.613 76.793C417.46 75.7839 418.273 74.8073 419.055 73.8633C419.641 73.1471 420.34 72.3008 421.154 71.3242C422.001 70.3477 422.88 69.3385 423.791 68.2969C424.735 67.2227 425.679 66.181 426.623 65.1719C427.6 64.1628 428.511 63.2513 429.357 62.4375C430.236 61.6237 431.018 60.9727 431.701 60.4844C432.385 59.9635 432.922 59.7031 433.312 59.7031C433.573 59.7031 433.931 59.752 434.387 59.8496C434.842 59.9473 435.282 60.0938 435.705 60.2891C436.161 60.4518 436.535 60.6797 436.828 60.9727C437.154 61.2331 437.316 61.526 437.316 61.8516C437.316 62.2096 437.072 62.6654 436.584 63.2188C436.128 63.7721 435.559 64.4232 434.875 65.1719L426.77 74.3516C426.542 74.612 426.167 75.0189 425.646 75.5723C425.158 76.1257 424.605 76.7767 423.986 77.5254C423.368 78.2415 422.717 79.0065 422.033 79.8203C421.382 80.6016 420.78 81.3503 420.227 82.0664C419.706 82.7826 419.266 83.4173 418.908 83.9707C418.55 84.5241 418.371 84.8984 418.371 85.0938C418.371 85.3542 418.469 85.5658 418.664 85.7285C418.892 85.8913 419.25 85.9727 419.738 85.9727C420.747 85.9727 421.805 85.8262 422.912 85.5332C424.019 85.2402 425.142 84.8496 426.281 84.3613C427.453 83.873 428.609 83.3034 429.748 82.6523C430.92 81.9688 432.043 81.2526 433.117 80.5039C433.28 80.3737 433.622 80.1133 434.143 79.7227C434.696 79.332 435.347 78.8112 436.096 78.1602C436.844 77.4766 437.674 76.679 438.586 75.7676C439.53 74.8561 440.474 73.8307 441.418 72.6914C440.702 71.1615 440.344 69.6315 440.344 68.1016C440.344 67.0599 440.539 66.0508 440.93 65.0742C441.32 64.0651 441.857 63.1862 442.541 62.4375C443.225 61.6562 444.022 61.0378 444.934 60.582C445.845 60.1263 446.822 59.8984 447.863 59.8984C448.449 59.8984 448.856 60.11 449.084 60.5332C449.312 60.9564 449.426 61.4609 449.426 62.0469V62.5352C449.328 63.9023 448.856 65.3509 448.01 66.8809C447.196 68.3783 446.203 69.8919 445.031 71.4219C445.161 72.5612 445.454 73.4889 445.91 74.2051C446.366 74.8887 446.903 75.4421 447.521 75.8652C448.14 76.2559 448.791 76.5326 449.475 76.6953C450.191 76.8255 450.858 76.8906 451.477 76.8906C452.616 76.8906 453.739 76.679 454.846 76.2559C455.985 75.8001 456.945 75.1979 457.727 74.4492L458.703 75.2305C458.443 75.5885 458.068 75.9629 457.58 76.3535C457.124 76.7441 456.555 77.1185 455.871 77.4766C455.22 77.8021 454.488 78.0788 453.674 78.3066C452.86 78.5345 451.997 78.6484 451.086 78.6484ZM489.562 47.2031C489.562 47.7565 489.416 48.2773 489.123 48.7656C488.83 49.2539 488.439 49.6771 487.951 50.0352C487.495 50.3932 486.958 50.6862 486.34 50.9141C485.721 51.1094 485.103 51.207 484.484 51.207C484.029 51.207 483.573 51.1582 483.117 51.0605C482.694 50.9629 482.287 50.7839 481.896 50.5234C481.538 50.263 481.245 49.9212 481.018 49.498C480.79 49.0423 480.676 48.4727 480.676 47.7891C480.676 47.2031 480.839 46.6986 481.164 46.2754C481.49 45.8522 481.896 45.5104 482.385 45.25C482.873 44.9896 483.426 44.7943 484.045 44.6641C484.663 44.5339 485.266 44.4688 485.852 44.4688C486.828 44.4688 487.642 44.6966 488.293 45.1523C488.977 45.5755 489.4 46.2591 489.562 47.2031ZM460.656 81.1875C460.168 81.7734 459.777 82.3757 459.484 82.9941C459.224 83.5801 459.094 84.0521 459.094 84.4102C459.094 85.2565 459.354 85.7936 459.875 86.0215C460.428 86.2493 461.177 86.3633 462.121 86.3633C463 86.3633 464.074 86.2982 465.344 86.168C466.646 86.0052 468.143 85.696 469.836 85.2402C471.561 84.7845 473.498 84.1497 475.646 83.3359C477.827 82.4896 480.253 81.3828 482.922 80.0156L483.41 81.1875C480.904 82.6849 478.413 83.9382 475.939 84.9473C473.498 85.9564 471.138 86.7702 468.859 87.3887C466.613 88.0072 464.497 88.4466 462.512 88.707C460.526 88.9674 458.768 89.0977 457.238 89.0977C455.48 89.0977 454.195 88.6745 453.381 87.8281C452.567 86.9492 452.16 85.7773 452.16 84.3125C452.16 83.5312 452.421 82.6523 452.941 81.6758C453.462 80.6667 454.309 79.3971 455.48 77.8672C456.717 76.3047 458.02 74.7747 459.387 73.2773C460.754 71.7799 462.121 70.2174 463.488 68.5898C464.4 67.5156 465.344 66.4577 466.32 65.416C467.297 64.3418 468.225 63.3815 469.104 62.5352C469.982 61.6888 470.78 61.0052 471.496 60.4844C472.212 59.9635 472.766 59.7031 473.156 59.7031C473.417 59.7031 473.775 59.752 474.23 59.8496C474.686 59.9473 475.126 60.0938 475.549 60.2891C476.005 60.4518 476.379 60.6797 476.672 60.9727C476.997 61.2331 477.16 61.526 477.16 61.8516C477.16 62.2096 476.916 62.6654 476.428 63.2188C475.972 63.7721 475.402 64.4232 474.719 65.1719L466.613 74.3516C466.385 74.5794 466.044 74.9375 465.588 75.4258C465.165 75.8815 464.676 76.4349 464.123 77.0859C463.602 77.7044 463.033 78.3717 462.414 79.0879C461.796 79.804 461.21 80.5039 460.656 81.1875ZM522.961 44.3711C521.008 46.4219 519.25 48.2611 517.688 49.8887C516.125 51.5163 514.579 53.0951 513.049 54.625C511.519 56.1224 509.924 57.6686 508.264 59.2637C506.604 60.8262 504.699 62.584 502.551 64.5371C500.402 66.4577 497.912 68.6549 495.08 71.1289C492.281 73.6029 488.977 76.5 485.168 79.8203C484.81 80.6992 484.533 81.513 484.338 82.2617C484.175 82.9779 484.094 83.6289 484.094 84.2148C484.094 84.6706 484.224 85.0612 484.484 85.3867C484.745 85.6797 485.07 85.9238 485.461 86.1191C485.884 86.3145 486.34 86.4609 486.828 86.5586C487.349 86.6237 487.837 86.6562 488.293 86.6562C489.172 86.6562 490.197 86.5586 491.369 86.3633C492.574 86.168 493.973 85.8262 495.568 85.3379C497.196 84.8171 499.068 84.1335 501.184 83.2871C503.332 82.4408 505.806 81.3503 508.605 80.0156L509.094 81.1875C506.164 82.5872 503.527 83.7754 501.184 84.752C498.84 85.7285 496.708 86.5423 494.787 87.1934C492.899 87.8118 491.174 88.2676 489.611 88.5605C488.081 88.8535 486.665 89 485.363 89C484.029 89 482.922 88.8698 482.043 88.6094C481.197 88.349 480.513 88.0072 479.992 87.584C479.504 87.1283 479.162 86.5911 478.967 85.9727C478.739 85.3542 478.625 84.6706 478.625 83.9219C478.625 82.3919 479.097 80.5202 480.041 78.3066C481.018 76.0931 482.303 73.6842 483.898 71.0801C485.526 68.4759 487.398 65.7415 489.514 62.877C491.63 59.9798 493.843 57.099 496.154 54.2344C498.498 51.3698 500.858 48.5703 503.234 45.8359C505.643 43.1016 507.922 40.5625 510.07 38.2188C510.721 37.5026 511.584 36.6237 512.658 35.582C513.732 34.5404 514.921 33.4499 516.223 32.3105C517.525 31.1387 518.892 29.9831 520.324 28.8438C521.789 27.7044 523.221 26.679 524.621 25.7676C526.053 24.8561 527.404 24.1237 528.674 23.5703C529.976 22.9844 531.132 22.6914 532.141 22.6914C533.475 22.6914 534.403 23.0169 534.924 23.668C535.477 24.319 535.754 25.1654 535.754 26.207C535.754 27.0208 535.493 27.9648 534.973 29.0391C534.452 30.1133 533.785 31.2526 532.971 32.457C532.157 33.6615 531.245 34.8822 530.236 36.1191C529.26 37.3561 528.299 38.5117 527.355 39.5859C526.411 40.6602 525.533 41.6204 524.719 42.4668C523.938 43.3132 523.352 43.9479 522.961 44.3711ZM518.371 38.0234C516.646 39.7487 514.823 41.6204 512.902 43.6387C510.982 45.6569 509.045 47.7565 507.092 49.9375C505.171 52.0859 503.251 54.2832 501.33 56.5293C499.442 58.7754 497.635 61.0052 495.91 63.2188C494.217 65.3997 492.639 67.5319 491.174 69.6152C489.709 71.666 488.456 73.6029 487.414 75.4258C489.204 73.8958 491.206 72.1543 493.42 70.2012C495.633 68.2155 497.945 66.1322 500.354 63.9512C502.795 61.7376 505.253 59.459 507.727 57.1152C510.233 54.7715 512.642 52.444 514.953 50.1328C517.297 47.7891 519.494 45.5267 521.545 43.3457C523.596 41.1322 525.386 39.0814 526.916 37.1934C528.446 35.3053 529.65 33.6126 530.529 32.1152C531.408 30.6178 531.848 29.3971 531.848 28.4531C531.848 27.9974 531.62 27.7695 531.164 27.7695C530.513 27.7695 529.699 28.0951 528.723 28.7461C527.746 29.3646 526.672 30.1784 525.5 31.1875C524.361 32.1641 523.173 33.2708 521.936 34.5078C520.699 35.7122 519.51 36.8841 518.371 38.0234ZM542.395 75.2305C540.832 76.9883 539.514 78.6647 538.439 80.2598C537.365 81.8223 536.828 83.1732 536.828 84.3125C536.828 85.1914 537.137 85.8262 537.756 86.2168C538.407 86.5749 539.204 86.7539 540.148 86.7539C541.027 86.7539 542.053 86.6562 543.225 86.4609C544.429 86.2656 545.829 85.9238 547.424 85.4355C549.051 84.9147 550.923 84.2311 553.039 83.3848C555.188 82.5384 557.661 81.4479 560.461 80.1133L560.949 81.2852C558.02 82.6849 555.383 83.873 553.039 84.8496C550.695 85.8262 548.563 86.64 546.643 87.291C544.755 87.9095 543.029 88.3652 541.467 88.6582C539.937 88.9512 538.521 89.0977 537.219 89.0977C536.405 89.0977 535.575 89 534.729 88.8047C533.882 88.5768 533.101 88.2513 532.385 87.8281C531.701 87.3724 531.132 86.8353 530.676 86.2168C530.22 85.5983 529.992 84.8659 529.992 84.0195C529.992 83.6289 530.041 83.222 530.139 82.7988C530.236 82.3757 530.415 81.9362 530.676 81.4805C527.974 84.1172 525.386 86.054 522.912 87.291C520.438 88.4954 518.143 89.0977 516.027 89.0977C514.4 89.0977 513.081 88.8861 512.072 88.4629C511.096 88.0072 510.314 87.4375 509.729 86.7539C509.175 86.0378 508.801 85.2402 508.605 84.3613C508.41 83.4824 508.312 82.5872 508.312 81.6758C508.312 80.1458 508.671 78.5508 509.387 76.8906C510.103 75.2305 511.063 73.5866 512.268 71.959C513.505 70.3314 514.921 68.7852 516.516 67.3203C518.143 65.8229 519.852 64.5208 521.643 63.4141C523.433 62.2747 525.24 61.3796 527.062 60.7285C528.885 60.0449 530.643 59.7031 532.336 59.7031C533.41 59.7031 534.419 59.8008 535.363 59.9961C536.307 60.1914 537.121 60.5007 537.805 60.9238C538.488 61.3145 539.025 61.8516 539.416 62.5352C539.839 63.1862 540.051 63.9674 540.051 64.8789C540.051 65.9206 539.758 67.125 539.172 68.4922L537.512 69.2734C537.707 68.4922 537.805 67.7435 537.805 67.0273C537.805 66.5065 537.74 66.002 537.609 65.5137C537.512 64.9928 537.333 64.5371 537.072 64.1465C536.812 63.7559 536.454 63.4466 535.998 63.2188C535.575 62.9583 535.038 62.8281 534.387 62.8281C532.987 62.8281 531.555 63.1699 530.09 63.8535C528.625 64.5046 527.193 65.3835 525.793 66.4902C524.426 67.5645 523.124 68.7852 521.887 70.1523C520.682 71.487 519.624 72.8542 518.713 74.2539C517.801 75.6536 517.069 77.0046 516.516 78.3066C515.995 79.6087 515.734 80.7318 515.734 81.6758C515.734 83.0104 516.044 83.8893 516.662 84.3125C517.281 84.7031 518.273 84.8984 519.641 84.8984C521.268 84.8984 522.961 84.3939 524.719 83.3848C526.477 82.3757 528.332 80.9922 530.285 79.2344C531.164 78.388 532.01 77.5742 532.824 76.793C533.671 76.0117 534.582 75.0352 535.559 73.8633C536.145 73.1471 536.844 72.3008 537.658 71.3242C538.505 70.3477 539.383 69.3385 540.295 68.2969C541.239 67.2227 542.183 66.181 543.127 65.1719C544.104 64.1628 545.015 63.2513 545.861 62.4375C546.74 61.6237 547.521 60.9727 548.205 60.4844C548.889 59.9635 549.426 59.7031 549.816 59.7031C550.077 59.7031 550.435 59.752 550.891 59.8496C551.346 59.9473 551.786 60.0938 552.209 60.2891C552.665 60.4518 553.039 60.6797 553.332 60.9727C553.658 61.2331 553.82 61.526 553.82 61.8516C553.82 62.2096 553.576 62.6654 553.088 63.2188C552.632 63.7721 552.062 64.4232 551.379 65.1719L542.395 75.2305Z" fill="white"/>
</svg>
